<svg xmlns="http://www.w3.org/2000/svg" width="924.812" height="987.406" viewBox="0 0 924.812 987.406">
  <defs>
    <style>
      .cls-1 {
        fill: #f4fafe;
        fill-rule: evenodd;
      }
    </style>
  </defs>
  <path id="Bg._Shape" data-name="Bg. Shape" class="cls-1" d="M1920,36.309c-89.28,8.908-113.66,96.951-318.28,18.392-129.67-49.784-208.67-6.581-244,7.612A156.168,156.168,0,0,0,1307.26,94.7c-35.48,34.329-43.93,87.281-28.89,137.007l-0.02.007c7.86,26.649,1.74,58.523-19.04,84.5-23.34,29.167-58.74,42.874-90.22,38.063a150.658,150.658,0,0,0-29.68-2.937c-79.25,0-144.221,61.083-144.221,137.78a135.9,135.9,0,0,0,37.541,93.64c17.45,19.517,28.35,47.121,28.35,77.745,0,25.632-7.64,49.15-20.36,67.582-20.14,24.085-32.09,54.051-32.09,86.536,0,79.471,71.47,143.894,159.64,143.894a172.416,172.416,0,0,0,80.46-19.592c38.26-18.017,86.5-28.768,138.93-28.768,79.85,0,149.99,24.922,189.97,62.5l0.01,0c31.73,28.537,74.95,46.1,122.58,46.1,65.04,0,121.84-32.733,152.42-81.445,9.13-12.483,36.21-44.6,67.36-35.686V36.309Z" transform="translate(-995.188 -31.344)"/>
</svg>
